<svg width="466" height="466" viewBox="0 0 466 466" fill="none" xmlns="http://www.w3.org/2000/svg">
<path d="M305.812 44.1426L296.256 54.6094C274.867 78.1597 257.233 88.6834 242.557 95.5664C227.88 102.449 215.536 104.497 203.42 113.77C190.507 123.667 171.735 142.667 163.828 176.57C146.876 180.268 134.476 186.753 124.691 195.229C115.021 203.591 107.74 213.09 98.752 223.443C98.6951 223.557 98.8088 223.785 98.752 223.898C85.896 238.688 74.6328 254.616 52.7891 263.035L43.6875 266.676V422.312H321.285C337.213 421.459 348.249 410.424 354.961 399.559C361.673 388.694 365.371 376.918 367.248 367.248C372.083 342.617 380.9 271.682 380.9 271.682L381.355 270.316V268.951C380.9 259.11 376.862 250.748 371.799 243.012L388.182 194.318L414.121 155.182L421.402 144.715L411.846 136.068L316.279 53.2441L305.812 44.1426ZM306.723 84.1895L382.721 150.176L362.697 179.756L361.332 181.121L360.877 183.396L347.68 222.533C340.797 219.689 333.686 217.698 325.836 217.982H324.926L233 218.438H218.438V274.867C216.39 290.738 207.573 296.882 196.594 301.262C192.953 302.741 192.498 301.944 189.312 302.627V217.982C186.923 163.999 206.15 148.469 221.168 136.979C225.321 133.793 237.494 130.095 254.844 121.961C269.349 115.135 287.382 102.905 306.723 84.1895ZM161.098 209.336C161.041 212.635 160.017 214.968 160.188 218.438C160.188 218.608 160.188 218.722 160.188 218.893V334.938H174.75C174.75 334.938 190.336 334.767 207.061 328.111C223.785 321.456 243.979 305.869 247.562 278.508V247.562L325.836 247.107H326.291C339.716 246.368 350.865 256.55 351.775 269.861C351.719 270.089 351.036 275.493 350.865 276.688H291.25V305.812H347.225C345.689 317.076 344.267 324.129 342.674 334.938H291.25V364.062H338.123C336.587 370.547 333.515 378.284 329.932 384.086C325.95 390.571 322.537 393.017 319.465 393.188H72.8125V284.424C96.4197 271.909 111.096 253.877 120.596 243.012C130.437 231.749 137.206 223.216 143.805 217.527C148.128 213.83 154.897 211.725 161.098 209.336Z" fill="url(#paint0_linear_35_9)"/>
<defs>
<linearGradient id="paint0_linear_35_9" x1="232.545" y1="44.1426" x2="232.545" y2="422.312" gradientUnits="userSpaceOnUse">
<stop stop-color="#F2AD84"/>
<stop offset="0.510417" stop-color="#F27A5F"/>
<stop offset="1" stop-color="#F15757"/>
</linearGradient>
</defs>
</svg>
